%TF.GenerationSoftware,KiCad,Pcbnew,7.0.5*%
%TF.CreationDate,2023-07-15T17:05:49+09:00*%
%TF.ProjectId,sdmux4,73646d75-7834-42e6-9b69-6361645f7063,rev?*%
%TF.SameCoordinates,Original*%
%TF.FileFunction,Profile,NP*%
%FSLAX46Y46*%
G04 Gerber Fmt 4.6, Leading zero omitted, Abs format (unit mm)*
G04 Created by KiCad (PCBNEW 7.0.5) date 2023-07-15 17:05:49*
%MOMM*%
%LPD*%
G01*
G04 APERTURE LIST*
%TA.AperFunction,Profile*%
%ADD10C,0.100000*%
%TD*%
%TA.AperFunction,Profile*%
%ADD11C,0.120000*%
%TD*%
G04 APERTURE END LIST*
D10*
X159509955Y-125870000D02*
G75*
G03*
X160165000Y-126565025I696245J0D01*
G01*
X205320000Y-85800000D02*
X205330000Y-69610000D01*
X160200000Y-68909975D02*
G75*
G03*
X159504975Y-69604975I0J-695025D01*
G01*
X160200000Y-68910000D02*
X204630000Y-68910000D01*
X205330000Y-69610000D02*
G75*
G03*
X204630000Y-68910000I-700000J0D01*
G01*
X205345000Y-108000000D02*
X205345000Y-125865025D01*
X204645025Y-126565025D02*
X160165000Y-126565025D01*
X159510000Y-125870000D02*
X159504975Y-69604975D01*
X204645025Y-126565025D02*
G75*
G03*
X205345025Y-125865025I-25J700025D01*
G01*
D11*
%TO.C,J102*%
X221620000Y-91425000D02*
X219820000Y-91425000D01*
X221620000Y-91425000D02*
X222820000Y-92625000D01*
X219820000Y-91425000D02*
X219820000Y-92325000D01*
X217620000Y-91425000D02*
X209070000Y-91425000D01*
X209070000Y-91425000D02*
X205320000Y-85800000D01*
X219820000Y-92325000D02*
X218620000Y-92325000D01*
X218620000Y-92325000D02*
X217620000Y-91425000D01*
X222820000Y-92625000D02*
X227316447Y-92628553D01*
X227820000Y-96825000D02*
X227816447Y-93128553D01*
X227820000Y-96825000D02*
X227816447Y-101821447D01*
X209070000Y-102325000D02*
X227316447Y-102321447D01*
X209070000Y-102325000D02*
X205345000Y-108000000D01*
X227816447Y-93128553D02*
G75*
G03*
X227316447Y-92628553I-500001J-1D01*
G01*
X227316447Y-102321447D02*
G75*
G03*
X227816447Y-101821447I-47J500047D01*
G01*
%TD*%
M02*
