%TF.GenerationSoftware,KiCad,Pcbnew,7.0.5*%
%TF.CreationDate,2023-07-15T17:05:49+09:00*%
%TF.ProjectId,sdmux4,73646d75-7834-42e6-9b69-6361645f7063,rev?*%
%TF.SameCoordinates,Original*%
%TF.FileFunction,Other,Comment*%
%FSLAX46Y46*%
G04 Gerber Fmt 4.6, Leading zero omitted, Abs format (unit mm)*
G04 Created by KiCad (PCBNEW 7.0.5) date 2023-07-15 17:05:49*
%MOMM*%
%LPD*%
G01*
G04 APERTURE LIST*
%ADD10C,0.090000*%
%ADD11C,0.060000*%
%ADD12C,0.100000*%
G04 APERTURE END LIST*
D10*
%TO.C,J103*%
X188240891Y-83085141D02*
X187640891Y-83085141D01*
X188240891Y-82742284D02*
X187898034Y-82999427D01*
X187640891Y-82742284D02*
X187983748Y-83085141D01*
X187926605Y-82485141D02*
X187926605Y-82285141D01*
X188240891Y-82199427D02*
X188240891Y-82485141D01*
X188240891Y-82485141D02*
X187640891Y-82485141D01*
X187640891Y-82485141D02*
X187640891Y-82199427D01*
X187926605Y-81942284D02*
X187926605Y-81742284D01*
X188240891Y-81656570D02*
X188240891Y-81942284D01*
X188240891Y-81942284D02*
X187640891Y-81942284D01*
X187640891Y-81942284D02*
X187640891Y-81656570D01*
X188240891Y-81399427D02*
X187640891Y-81399427D01*
X187640891Y-81399427D02*
X187640891Y-81170856D01*
X187640891Y-81170856D02*
X187669462Y-81113713D01*
X187669462Y-81113713D02*
X187698034Y-81085142D01*
X187698034Y-81085142D02*
X187755177Y-81056570D01*
X187755177Y-81056570D02*
X187840891Y-81056570D01*
X187840891Y-81056570D02*
X187898034Y-81085142D01*
X187898034Y-81085142D02*
X187926605Y-81113713D01*
X187926605Y-81113713D02*
X187955177Y-81170856D01*
X187955177Y-81170856D02*
X187955177Y-81399427D01*
X187640891Y-80685142D02*
X187640891Y-80570856D01*
X187640891Y-80570856D02*
X187669462Y-80513713D01*
X187669462Y-80513713D02*
X187726605Y-80456570D01*
X187726605Y-80456570D02*
X187840891Y-80427999D01*
X187840891Y-80427999D02*
X188040891Y-80427999D01*
X188040891Y-80427999D02*
X188155177Y-80456570D01*
X188155177Y-80456570D02*
X188212320Y-80513713D01*
X188212320Y-80513713D02*
X188240891Y-80570856D01*
X188240891Y-80570856D02*
X188240891Y-80685142D01*
X188240891Y-80685142D02*
X188212320Y-80742285D01*
X188212320Y-80742285D02*
X188155177Y-80799427D01*
X188155177Y-80799427D02*
X188040891Y-80827999D01*
X188040891Y-80827999D02*
X187840891Y-80827999D01*
X187840891Y-80827999D02*
X187726605Y-80799427D01*
X187726605Y-80799427D02*
X187669462Y-80742285D01*
X187669462Y-80742285D02*
X187640891Y-80685142D01*
X187640891Y-80170856D02*
X188126605Y-80170856D01*
X188126605Y-80170856D02*
X188183748Y-80142285D01*
X188183748Y-80142285D02*
X188212320Y-80113714D01*
X188212320Y-80113714D02*
X188240891Y-80056571D01*
X188240891Y-80056571D02*
X188240891Y-79942285D01*
X188240891Y-79942285D02*
X188212320Y-79885142D01*
X188212320Y-79885142D02*
X188183748Y-79856571D01*
X188183748Y-79856571D02*
X188126605Y-79827999D01*
X188126605Y-79827999D02*
X187640891Y-79827999D01*
X187640891Y-79628000D02*
X187640891Y-79285143D01*
X188240891Y-79456571D02*
X187640891Y-79456571D01*
D11*
X197779904Y-70509927D02*
X197779904Y-70109927D01*
X198008475Y-70509927D02*
X197837046Y-70281356D01*
X198008475Y-70109927D02*
X197779904Y-70338499D01*
X198179904Y-70300403D02*
X198313237Y-70300403D01*
X198370380Y-70509927D02*
X198179904Y-70509927D01*
X198179904Y-70509927D02*
X198179904Y-70109927D01*
X198179904Y-70109927D02*
X198370380Y-70109927D01*
X198541809Y-70300403D02*
X198675142Y-70300403D01*
X198732285Y-70509927D02*
X198541809Y-70509927D01*
X198541809Y-70509927D02*
X198541809Y-70109927D01*
X198541809Y-70109927D02*
X198732285Y-70109927D01*
X198903714Y-70509927D02*
X198903714Y-70109927D01*
X198903714Y-70109927D02*
X199056095Y-70109927D01*
X199056095Y-70109927D02*
X199094190Y-70128975D01*
X199094190Y-70128975D02*
X199113237Y-70148022D01*
X199113237Y-70148022D02*
X199132285Y-70186118D01*
X199132285Y-70186118D02*
X199132285Y-70243260D01*
X199132285Y-70243260D02*
X199113237Y-70281356D01*
X199113237Y-70281356D02*
X199094190Y-70300403D01*
X199094190Y-70300403D02*
X199056095Y-70319451D01*
X199056095Y-70319451D02*
X198903714Y-70319451D01*
X199379904Y-70109927D02*
X199456095Y-70109927D01*
X199456095Y-70109927D02*
X199494190Y-70128975D01*
X199494190Y-70128975D02*
X199532285Y-70167070D01*
X199532285Y-70167070D02*
X199551333Y-70243260D01*
X199551333Y-70243260D02*
X199551333Y-70376594D01*
X199551333Y-70376594D02*
X199532285Y-70452784D01*
X199532285Y-70452784D02*
X199494190Y-70490880D01*
X199494190Y-70490880D02*
X199456095Y-70509927D01*
X199456095Y-70509927D02*
X199379904Y-70509927D01*
X199379904Y-70509927D02*
X199341809Y-70490880D01*
X199341809Y-70490880D02*
X199303714Y-70452784D01*
X199303714Y-70452784D02*
X199284666Y-70376594D01*
X199284666Y-70376594D02*
X199284666Y-70243260D01*
X199284666Y-70243260D02*
X199303714Y-70167070D01*
X199303714Y-70167070D02*
X199341809Y-70128975D01*
X199341809Y-70128975D02*
X199379904Y-70109927D01*
X199722762Y-70109927D02*
X199722762Y-70433737D01*
X199722762Y-70433737D02*
X199741809Y-70471832D01*
X199741809Y-70471832D02*
X199760857Y-70490880D01*
X199760857Y-70490880D02*
X199798952Y-70509927D01*
X199798952Y-70509927D02*
X199875143Y-70509927D01*
X199875143Y-70509927D02*
X199913238Y-70490880D01*
X199913238Y-70490880D02*
X199932285Y-70471832D01*
X199932285Y-70471832D02*
X199951333Y-70433737D01*
X199951333Y-70433737D02*
X199951333Y-70109927D01*
X200084667Y-70109927D02*
X200313238Y-70109927D01*
X200198952Y-70509927D02*
X200198952Y-70109927D01*
D12*
X190647762Y-80360419D02*
X190647762Y-79360419D01*
X191219190Y-80360419D02*
X190790619Y-79788990D01*
X191219190Y-79360419D02*
X190647762Y-79931847D01*
X191647762Y-79836609D02*
X191981095Y-79836609D01*
X192123952Y-80360419D02*
X191647762Y-80360419D01*
X191647762Y-80360419D02*
X191647762Y-79360419D01*
X191647762Y-79360419D02*
X192123952Y-79360419D01*
X192552524Y-79836609D02*
X192885857Y-79836609D01*
X193028714Y-80360419D02*
X192552524Y-80360419D01*
X192552524Y-80360419D02*
X192552524Y-79360419D01*
X192552524Y-79360419D02*
X193028714Y-79360419D01*
X193457286Y-80360419D02*
X193457286Y-79360419D01*
X193457286Y-79360419D02*
X193838238Y-79360419D01*
X193838238Y-79360419D02*
X193933476Y-79408038D01*
X193933476Y-79408038D02*
X193981095Y-79455657D01*
X193981095Y-79455657D02*
X194028714Y-79550895D01*
X194028714Y-79550895D02*
X194028714Y-79693752D01*
X194028714Y-79693752D02*
X193981095Y-79788990D01*
X193981095Y-79788990D02*
X193933476Y-79836609D01*
X193933476Y-79836609D02*
X193838238Y-79884228D01*
X193838238Y-79884228D02*
X193457286Y-79884228D01*
X194647762Y-79360419D02*
X194838238Y-79360419D01*
X194838238Y-79360419D02*
X194933476Y-79408038D01*
X194933476Y-79408038D02*
X195028714Y-79503276D01*
X195028714Y-79503276D02*
X195076333Y-79693752D01*
X195076333Y-79693752D02*
X195076333Y-80027085D01*
X195076333Y-80027085D02*
X195028714Y-80217561D01*
X195028714Y-80217561D02*
X194933476Y-80312800D01*
X194933476Y-80312800D02*
X194838238Y-80360419D01*
X194838238Y-80360419D02*
X194647762Y-80360419D01*
X194647762Y-80360419D02*
X194552524Y-80312800D01*
X194552524Y-80312800D02*
X194457286Y-80217561D01*
X194457286Y-80217561D02*
X194409667Y-80027085D01*
X194409667Y-80027085D02*
X194409667Y-79693752D01*
X194409667Y-79693752D02*
X194457286Y-79503276D01*
X194457286Y-79503276D02*
X194552524Y-79408038D01*
X194552524Y-79408038D02*
X194647762Y-79360419D01*
X195504905Y-79360419D02*
X195504905Y-80169942D01*
X195504905Y-80169942D02*
X195552524Y-80265180D01*
X195552524Y-80265180D02*
X195600143Y-80312800D01*
X195600143Y-80312800D02*
X195695381Y-80360419D01*
X195695381Y-80360419D02*
X195885857Y-80360419D01*
X195885857Y-80360419D02*
X195981095Y-80312800D01*
X195981095Y-80312800D02*
X196028714Y-80265180D01*
X196028714Y-80265180D02*
X196076333Y-80169942D01*
X196076333Y-80169942D02*
X196076333Y-79360419D01*
X196409667Y-79360419D02*
X196981095Y-79360419D01*
X196695381Y-80360419D02*
X196695381Y-79360419D01*
D10*
X189315891Y-77460141D02*
X188715891Y-77460141D01*
X189315891Y-77117284D02*
X188973034Y-77374427D01*
X188715891Y-77117284D02*
X189058748Y-77460141D01*
X189001605Y-76860141D02*
X189001605Y-76660141D01*
X189315891Y-76574427D02*
X189315891Y-76860141D01*
X189315891Y-76860141D02*
X188715891Y-76860141D01*
X188715891Y-76860141D02*
X188715891Y-76574427D01*
X189001605Y-76317284D02*
X189001605Y-76117284D01*
X189315891Y-76031570D02*
X189315891Y-76317284D01*
X189315891Y-76317284D02*
X188715891Y-76317284D01*
X188715891Y-76317284D02*
X188715891Y-76031570D01*
X189315891Y-75774427D02*
X188715891Y-75774427D01*
X188715891Y-75774427D02*
X188715891Y-75545856D01*
X188715891Y-75545856D02*
X188744462Y-75488713D01*
X188744462Y-75488713D02*
X188773034Y-75460142D01*
X188773034Y-75460142D02*
X188830177Y-75431570D01*
X188830177Y-75431570D02*
X188915891Y-75431570D01*
X188915891Y-75431570D02*
X188973034Y-75460142D01*
X188973034Y-75460142D02*
X189001605Y-75488713D01*
X189001605Y-75488713D02*
X189030177Y-75545856D01*
X189030177Y-75545856D02*
X189030177Y-75774427D01*
X188715891Y-75060142D02*
X188715891Y-74945856D01*
X188715891Y-74945856D02*
X188744462Y-74888713D01*
X188744462Y-74888713D02*
X188801605Y-74831570D01*
X188801605Y-74831570D02*
X188915891Y-74802999D01*
X188915891Y-74802999D02*
X189115891Y-74802999D01*
X189115891Y-74802999D02*
X189230177Y-74831570D01*
X189230177Y-74831570D02*
X189287320Y-74888713D01*
X189287320Y-74888713D02*
X189315891Y-74945856D01*
X189315891Y-74945856D02*
X189315891Y-75060142D01*
X189315891Y-75060142D02*
X189287320Y-75117285D01*
X189287320Y-75117285D02*
X189230177Y-75174427D01*
X189230177Y-75174427D02*
X189115891Y-75202999D01*
X189115891Y-75202999D02*
X188915891Y-75202999D01*
X188915891Y-75202999D02*
X188801605Y-75174427D01*
X188801605Y-75174427D02*
X188744462Y-75117285D01*
X188744462Y-75117285D02*
X188715891Y-75060142D01*
X188715891Y-74545856D02*
X189201605Y-74545856D01*
X189201605Y-74545856D02*
X189258748Y-74517285D01*
X189258748Y-74517285D02*
X189287320Y-74488714D01*
X189287320Y-74488714D02*
X189315891Y-74431571D01*
X189315891Y-74431571D02*
X189315891Y-74317285D01*
X189315891Y-74317285D02*
X189287320Y-74260142D01*
X189287320Y-74260142D02*
X189258748Y-74231571D01*
X189258748Y-74231571D02*
X189201605Y-74202999D01*
X189201605Y-74202999D02*
X188715891Y-74202999D01*
X188715891Y-74003000D02*
X188715891Y-73660143D01*
X189315891Y-73831571D02*
X188715891Y-73831571D01*
%TD*%
M02*
