M48
INCH
T1C0.0157
T2C0.0236
T3C0.0315
T4C0.0354
T5C0.0591
%
G90
G05
T1
X6.348Y-4.0366
X6.35Y-3.8701
X6.35Y-4.5689
X6.3508Y-2.7681
X6.3528Y-3.1122
X6.3528Y-3.3252
X6.3528Y-4.3161
X6.3539Y-4.9224
X6.3551Y-3.5335
X6.3555Y-3.7315
X6.4228Y-3.3461
X6.4833Y-4.0
X6.4961Y-4.9331
X6.5Y-4.7717
X6.5252Y-3.8622
X6.5272Y-3.7429
X6.5449Y-3.1142
X6.5748Y-4.9449
X6.5787Y-3.5315
X6.5957Y-4.0807
X6.6047Y-4.7654
X6.6126Y-4.5697
X6.6417Y-4.3882
X6.7063Y-4.3744
X6.7063Y-4.6224
X6.7165Y-3.9311
X6.7165Y-4.9331
X6.7283Y-3.8248
X6.7362Y-3.0945
X6.7402Y-4.874
X6.7417Y-2.7654
X6.7492Y-4.6669
X6.7547Y-3.4555
X6.7594Y-3.2976
X6.763Y-4.3559
X6.7646Y-4.1866
X6.7811Y-4.5839
X6.7882Y-3.5661
X6.7912Y-4.752
X6.8071Y-4.3205
X6.8189Y-3.0945
X6.8201Y-4.2429
X6.8209Y-4.5295
X6.8236Y-3.3283
X6.8358Y-3.4339
X6.8425Y-4.8701
X6.8506Y-3.575
X6.8516Y-4.3224
X6.8543Y-4.222
X6.8553Y-4.5795
X6.8556Y-4.6794
X6.8587Y-4.9488
X6.8638Y-3.0197
X6.8888Y-4.5587
X6.8923Y-4.3205
X6.8925Y-4.2634
X6.9209Y-3.963
X6.9224Y-4.0177
X6.926Y-3.8689
X6.9366Y-3.7457
X6.9413Y-2.7661
X6.9638Y-4.824
X6.9803Y-3.5465
X6.9835Y-4.2413
X6.9969Y-4.3591
X7.011Y-4.7512
X7.0272Y-4.5362
X7.028Y-3.8732
X7.0315Y-4.487
X7.0409Y-3.1291
X7.0413Y-4.6878
X7.0453Y-3.7457
X7.0736Y-3.2728
X7.0748Y-4.8264
X7.0819Y-4.9476
X7.0961Y-2.8937
X7.115Y-4.3205
X7.1185Y-3.3961
X7.1265Y-4.0039
X7.1268Y-4.1524
X7.1301Y-4.0431
X7.1886Y-3.1299
X7.2008Y-4.152
X7.2104Y-3.2689
X7.2327Y-3.3894
X7.2429Y-4.6189
X7.2638Y-3.1339
X7.2638Y-3.3417
X7.2642Y-4.3091
X7.2672Y-4.5299
X7.2685Y-4.4906
X7.2708Y-4.5691
X7.3126Y-3.2563
X7.3138Y-4.9488
X7.3344Y-3.9876
X7.3433Y-3.4496
X7.3488Y-3.85
X7.3516Y-3.9295
X7.3763Y-4.7604
X7.3898Y-3.7748
X7.3977Y-4.0556
X7.4042Y-4.823
X7.4059Y-3.8462
X7.4114Y-4.4827
X7.4272Y-3.448
X7.4379Y-3.7717
X7.4463Y-4.8211
X7.4587Y-3.285
X7.4785Y-3.8002
X7.48Y-3.445
X7.4803Y-4.2756
X7.4827Y-4.4732
X7.4894Y-4.8234
X7.4894Y-4.9159
X7.4953Y-2.7673
X7.4965Y-2.9913
X7.525Y-3.445
X7.5374Y-4.6067
X7.5441Y-4.7862
X7.5567Y-4.4799
X7.5591Y-4.2756
X7.5657Y-3.2878
X7.5669Y-4.3291
X7.5783Y-4.5469
X7.5799Y-4.6516
X7.603Y-3.7075
X7.6083Y-3.75
X7.61Y-3.445
X7.6291Y-4.9461
X7.6307Y-3.6457
X7.6382Y-4.2681
X7.6492Y-3.2854
X7.678Y-4.2661
X7.69Y-3.445
X7.692Y-4.3942
X7.7173Y-4.7
X7.7268Y-2.7823
X7.735Y-3.445
X7.7366Y-2.9949
X7.7396Y-3.745
X7.7472Y-3.2862
X7.776Y-4.7232
X7.7823Y-4.2677
X7.7969Y-4.1776
X7.7972Y-4.1206
X7.798Y-4.3039
X7.8008Y-4.9472
X7.805Y-3.44
X7.8111Y-4.0226
X7.8205Y-3.8303
X7.8219Y-4.0604
X7.8346Y-3.8878
X7.8346Y-3.937
X7.8496Y-3.7004
X7.8539Y-4.0209
X7.89Y-3.94
X7.9118Y-3.1937
X7.913Y-2.9933
X7.925Y-4.198
X7.9252Y-3.6772
X7.9461Y-4.4059
X7.9471Y-3.609
X7.9656Y-4.1977
X7.9701Y-3.7202
X7.9748Y-3.6587
X7.9748Y-4.5512
X7.9811Y-3.4658
X8.002Y-3.937
X8.0118Y-3.7202
X8.0165Y-2.7697
X8.0177Y-2.8929
X8.0177Y-3.1134
X8.0193Y-3.3126
X8.0213Y-4.9453
X8.0327Y-4.798
X8.0366Y-4.6004
X8.0382Y-4.0515
X8.0413Y-4.376
X8.0461Y-3.9594
X8.0571Y-4.2075
X8.0586Y-3.719
X8.061Y-3.4374
X8.0706Y-4.02
X8.1056Y-3.7782
X8.12Y-3.6
X8.1319Y-4.0929
X8.1402Y-3.5421
X8.155Y-3.815
X8.205Y-3.9
X8.275Y-3.9
X8.2945Y-3.6472
X8.5919Y-3.9026
T2
X6.5965Y-3.7717
X6.5965Y-3.8346
X6.6437Y-3.7402
X6.6437Y-3.8031
X6.6437Y-3.8661
T4
X6.4144Y-4.4921
X6.5144Y-4.4921
T5
X7.6181Y-3.937
T2
G00X6.6595Y-2.8171
M15
G01X6.6595Y-2.8604
M16
G05
G00X6.6595Y-2.9171
M15
G01X6.6595Y-2.9604
M16
G05
G00X6.6595Y-3.0171
M15
G01X6.6595Y-3.0604
M16
G05
T3
G00X6.4429Y-3.6535
M15
G01X6.3957Y-3.6535
M16
G05
G00X6.4429Y-3.9528
M15
G01X6.3957Y-3.9528
M16
G05
G00X6.6319Y-3.6535
M15
G01X6.5846Y-3.6535
M16
G05
G00X6.6319Y-3.9528
M15
G01X6.5846Y-3.9528
M16
G05
T0
M30
