%TF.GenerationSoftware,KiCad,Pcbnew,7.0.5*%
%TF.CreationDate,2023-07-09T17:38:26+09:00*%
%TF.ProjectId,sdcdmuxemmc,73646364-6d75-4786-956d-6d632e6b6963,rev?*%
%TF.SameCoordinates,Original*%
%TF.FileFunction,Paste,Bot*%
%TF.FilePolarity,Positive*%
%FSLAX46Y46*%
G04 Gerber Fmt 4.6, Leading zero omitted, Abs format (unit mm)*
G04 Created by KiCad (PCBNEW 7.0.5) date 2023-07-09 17:38:26*
%MOMM*%
%LPD*%
G01*
G04 APERTURE LIST*
G04 Aperture macros list*
%AMRoundRect*
0 Rectangle with rounded corners*
0 $1 Rounding radius*
0 $2 $3 $4 $5 $6 $7 $8 $9 X,Y pos of 4 corners*
0 Add a 4 corners polygon primitive as box body*
4,1,4,$2,$3,$4,$5,$6,$7,$8,$9,$2,$3,0*
0 Add four circle primitives for the rounded corners*
1,1,$1+$1,$2,$3*
1,1,$1+$1,$4,$5*
1,1,$1+$1,$6,$7*
1,1,$1+$1,$8,$9*
0 Add four rect primitives between the rounded corners*
20,1,$1+$1,$2,$3,$4,$5,0*
20,1,$1+$1,$4,$5,$6,$7,0*
20,1,$1+$1,$6,$7,$8,$9,0*
20,1,$1+$1,$8,$9,$2,$3,0*%
G04 Aperture macros list end*
%ADD10RoundRect,0.250000X0.337500X0.475000X-0.337500X0.475000X-0.337500X-0.475000X0.337500X-0.475000X0*%
%ADD11RoundRect,0.250000X-0.350000X-0.450000X0.350000X-0.450000X0.350000X0.450000X-0.350000X0.450000X0*%
%ADD12RoundRect,0.250000X0.350000X0.450000X-0.350000X0.450000X-0.350000X-0.450000X0.350000X-0.450000X0*%
%ADD13RoundRect,0.237500X0.237500X-0.300000X0.237500X0.300000X-0.237500X0.300000X-0.237500X-0.300000X0*%
%ADD14RoundRect,0.150000X0.587500X0.150000X-0.587500X0.150000X-0.587500X-0.150000X0.587500X-0.150000X0*%
%ADD15RoundRect,0.237500X-0.300000X-0.237500X0.300000X-0.237500X0.300000X0.237500X-0.300000X0.237500X0*%
%ADD16RoundRect,0.250000X-0.450000X0.350000X-0.450000X-0.350000X0.450000X-0.350000X0.450000X0.350000X0*%
%ADD17RoundRect,0.237500X-0.237500X0.300000X-0.237500X-0.300000X0.237500X-0.300000X0.237500X0.300000X0*%
%ADD18R,1.560000X0.650000*%
%ADD19RoundRect,0.237500X0.300000X0.237500X-0.300000X0.237500X-0.300000X-0.237500X0.300000X-0.237500X0*%
%ADD20R,1.000000X0.700000*%
%ADD21R,0.600000X0.700000*%
%ADD22RoundRect,0.075000X-0.075000X0.662500X-0.075000X-0.662500X0.075000X-0.662500X0.075000X0.662500X0*%
%ADD23RoundRect,0.075000X-0.662500X0.075000X-0.662500X-0.075000X0.662500X-0.075000X0.662500X0.075000X0*%
%ADD24C,0.254000*%
%ADD25RoundRect,0.250000X0.450000X-0.350000X0.450000X0.350000X-0.450000X0.350000X-0.450000X-0.350000X0*%
%ADD26RoundRect,0.100000X0.100000X-0.712500X0.100000X0.712500X-0.100000X0.712500X-0.100000X-0.712500X0*%
G04 APERTURE END LIST*
D10*
%TO.C,C401*%
X197287500Y-103250000D03*
X195212500Y-103250000D03*
%TD*%
D11*
%TO.C,R503*%
X180760000Y-112950000D03*
X182760000Y-112950000D03*
%TD*%
D12*
%TO.C,R403*%
X201640000Y-109500000D03*
X199640000Y-109500000D03*
%TD*%
D13*
%TO.C,C506*%
X197610000Y-118462500D03*
X197610000Y-116737500D03*
%TD*%
D14*
%TO.C,Q301*%
X179787500Y-93570000D03*
X179787500Y-95470000D03*
X177912500Y-94520000D03*
%TD*%
D11*
%TO.C,R402*%
X190090000Y-103210000D03*
X192090000Y-103210000D03*
%TD*%
D15*
%TO.C,C508*%
X184557500Y-110920000D03*
X186282500Y-110920000D03*
%TD*%
D10*
%TO.C,C306*%
X182547500Y-74220000D03*
X180472500Y-74220000D03*
%TD*%
D16*
%TO.C,R302*%
X182340000Y-93520000D03*
X182340000Y-95520000D03*
%TD*%
D15*
%TO.C,C507*%
X195337500Y-109980000D03*
X197062500Y-109980000D03*
%TD*%
D17*
%TO.C,C301*%
X184490000Y-93547500D03*
X184490000Y-95272500D03*
%TD*%
D12*
%TO.C,R301*%
X188510000Y-93720000D03*
X186510000Y-93720000D03*
%TD*%
%TO.C,R303*%
X180870000Y-87550000D03*
X178870000Y-87550000D03*
%TD*%
D13*
%TO.C,C405*%
X197250000Y-100862500D03*
X197250000Y-99137500D03*
%TD*%
D18*
%TO.C,U503*%
X181350000Y-104360000D03*
X181350000Y-103410000D03*
X181350000Y-102460000D03*
X184050000Y-102460000D03*
X184050000Y-104360000D03*
%TD*%
D19*
%TO.C,C510*%
X182422500Y-115520000D03*
X180697500Y-115520000D03*
%TD*%
D17*
%TO.C,C501*%
X182520000Y-120567500D03*
X182520000Y-122292500D03*
%TD*%
D19*
%TO.C,C603*%
X206372500Y-99160000D03*
X204647500Y-99160000D03*
%TD*%
%TO.C,C303*%
X180882500Y-90750000D03*
X179157500Y-90750000D03*
%TD*%
D20*
%TO.C,D101*%
X165200000Y-97650000D03*
D21*
X163500000Y-97650000D03*
X163500000Y-95650000D03*
X165400000Y-95650000D03*
%TD*%
D22*
%TO.C,U502*%
X188250000Y-111537500D03*
X188750000Y-111537500D03*
X189250000Y-111537500D03*
X189750000Y-111537500D03*
X190250000Y-111537500D03*
X190750000Y-111537500D03*
X191250000Y-111537500D03*
X191750000Y-111537500D03*
X192250000Y-111537500D03*
X192750000Y-111537500D03*
X193250000Y-111537500D03*
X193750000Y-111537500D03*
D23*
X195162500Y-112950000D03*
X195162500Y-113450000D03*
X195162500Y-113950000D03*
X195162500Y-114450000D03*
X195162500Y-114950000D03*
X195162500Y-115450000D03*
X195162500Y-115950000D03*
X195162500Y-116450000D03*
X195162500Y-116950000D03*
X195162500Y-117450000D03*
X195162500Y-117950000D03*
X195162500Y-118450000D03*
D22*
X193750000Y-119862500D03*
X193250000Y-119862500D03*
X192750000Y-119862500D03*
X192250000Y-119862500D03*
X191750000Y-119862500D03*
X191250000Y-119862500D03*
X190750000Y-119862500D03*
X190250000Y-119862500D03*
X189750000Y-119862500D03*
X189250000Y-119862500D03*
X188750000Y-119862500D03*
X188250000Y-119862500D03*
D23*
X186837500Y-118450000D03*
X186837500Y-117950000D03*
X186837500Y-117450000D03*
X186837500Y-116950000D03*
X186837500Y-116450000D03*
X186837500Y-115950000D03*
X186837500Y-115450000D03*
X186837500Y-114950000D03*
X186837500Y-114450000D03*
X186837500Y-113950000D03*
X186837500Y-113450000D03*
X186837500Y-112950000D03*
%TD*%
D12*
%TO.C,R501*%
X188130000Y-108480000D03*
X186130000Y-108480000D03*
%TD*%
D11*
%TO.C,R202*%
X163000000Y-119500000D03*
X165000000Y-119500000D03*
%TD*%
D19*
%TO.C,C305*%
X182562500Y-77630000D03*
X180837500Y-77630000D03*
%TD*%
D17*
%TO.C,C407*%
X201750000Y-102137500D03*
X201750000Y-103862500D03*
%TD*%
D12*
%TO.C,R204*%
X174380000Y-74700000D03*
X172380000Y-74700000D03*
%TD*%
%TO.C,R201*%
X169720000Y-119420000D03*
X167720000Y-119420000D03*
%TD*%
D24*
%TO.C,U604*%
X197500000Y-80700000D03*
X197500000Y-79700000D03*
X197500000Y-79200000D03*
X197500000Y-78700000D03*
X197500000Y-78200000D03*
X197500000Y-77700000D03*
X197500000Y-77200000D03*
X197500000Y-76700000D03*
X197500000Y-76200000D03*
X197500000Y-75700000D03*
X197500000Y-75200000D03*
X197500000Y-74700000D03*
X197500000Y-74200000D03*
X197000000Y-80200000D03*
X197000000Y-79700000D03*
X197000000Y-79200000D03*
X197000000Y-78700000D03*
X197000000Y-78200000D03*
X197000000Y-77700000D03*
X197000000Y-77200000D03*
X197000000Y-76700000D03*
X197000000Y-76200000D03*
X197000000Y-75700000D03*
X197000000Y-75200000D03*
X197000000Y-74700000D03*
X197000000Y-74200000D03*
X196500000Y-80700000D03*
X196500000Y-80200000D03*
X196500000Y-79200000D03*
X196500000Y-78200000D03*
X196500000Y-77200000D03*
X196500000Y-76700000D03*
X196500000Y-76200000D03*
X196500000Y-75700000D03*
X196500000Y-75200000D03*
X196500000Y-74700000D03*
X196500000Y-74200000D03*
X196000000Y-80200000D03*
X196000000Y-79200000D03*
X196000000Y-75200000D03*
X196000000Y-74700000D03*
X196000000Y-74200000D03*
X195500000Y-80700000D03*
X195500000Y-80200000D03*
X195500000Y-79700000D03*
X195500000Y-78700000D03*
X195500000Y-78200000D03*
X195500000Y-77700000D03*
X195500000Y-77200000D03*
X195500000Y-76700000D03*
X195500000Y-76200000D03*
X195500000Y-75200000D03*
X195500000Y-74700000D03*
X195500000Y-74200000D03*
X195000000Y-80700000D03*
X195000000Y-80200000D03*
X195000000Y-79700000D03*
X195000000Y-78700000D03*
X195000000Y-76200000D03*
X195000000Y-75200000D03*
X195000000Y-74700000D03*
X195000000Y-74200000D03*
X194500000Y-80700000D03*
X194500000Y-80200000D03*
X194500000Y-79700000D03*
X194500000Y-78700000D03*
X194500000Y-76200000D03*
X194500000Y-75200000D03*
X194500000Y-74700000D03*
X194500000Y-74200000D03*
X194000000Y-80700000D03*
X194000000Y-80200000D03*
X194000000Y-79700000D03*
X194000000Y-78700000D03*
X194000000Y-76200000D03*
X194000000Y-75200000D03*
X194000000Y-74700000D03*
X194000000Y-74200000D03*
X193500000Y-80700000D03*
X193500000Y-80200000D03*
X193500000Y-79700000D03*
X193500000Y-78700000D03*
X193500000Y-76200000D03*
X193500000Y-75200000D03*
X193500000Y-74700000D03*
X193500000Y-74200000D03*
X193000000Y-80700000D03*
X193000000Y-80200000D03*
X193000000Y-79700000D03*
X193000000Y-78700000D03*
X193000000Y-78200000D03*
X193000000Y-77700000D03*
X193000000Y-77200000D03*
X193000000Y-76700000D03*
X193000000Y-76200000D03*
X193000000Y-75200000D03*
X193000000Y-74700000D03*
X193000000Y-74200000D03*
X192500000Y-80700000D03*
X192500000Y-80200000D03*
X192500000Y-79700000D03*
X192500000Y-75200000D03*
X192500000Y-74700000D03*
X192500000Y-74200000D03*
X192000000Y-80700000D03*
X192000000Y-80200000D03*
X192000000Y-79700000D03*
X192000000Y-79200000D03*
X192000000Y-78700000D03*
X192000000Y-78200000D03*
X192000000Y-77700000D03*
X192000000Y-77200000D03*
X192000000Y-76700000D03*
X192000000Y-76200000D03*
X192000000Y-75700000D03*
X192000000Y-75200000D03*
X192000000Y-74700000D03*
X192000000Y-74200000D03*
X191500000Y-80700000D03*
X191500000Y-80200000D03*
X191500000Y-79700000D03*
X191500000Y-79200000D03*
X191500000Y-78700000D03*
X191500000Y-78200000D03*
X191500000Y-77700000D03*
X191500000Y-77200000D03*
X191500000Y-76700000D03*
X191500000Y-76200000D03*
X191500000Y-75700000D03*
X191500000Y-75200000D03*
X191500000Y-74700000D03*
X191500000Y-74200000D03*
X191000000Y-80700000D03*
X191000000Y-79700000D03*
X191000000Y-79200000D03*
X191000000Y-78700000D03*
X191000000Y-78200000D03*
X191000000Y-77700000D03*
X191000000Y-77200000D03*
X191000000Y-76700000D03*
X191000000Y-76200000D03*
X191000000Y-75700000D03*
X191000000Y-75200000D03*
X191000000Y-74700000D03*
X191000000Y-74200000D03*
%TD*%
D25*
%TO.C,R304*%
X175510000Y-94570000D03*
X175510000Y-92570000D03*
%TD*%
D17*
%TO.C,C503*%
X186020000Y-120487500D03*
X186020000Y-122212500D03*
%TD*%
D10*
%TO.C,C513*%
X182527500Y-117470000D03*
X180452500Y-117470000D03*
%TD*%
D19*
%TO.C,C602*%
X205713500Y-97409000D03*
X203988500Y-97409000D03*
%TD*%
D26*
%TO.C,Q302*%
X180845000Y-83932500D03*
X180195000Y-83932500D03*
X179545000Y-83932500D03*
X178895000Y-83932500D03*
X178895000Y-79707500D03*
X179545000Y-79707500D03*
X180195000Y-79707500D03*
X180845000Y-79707500D03*
%TD*%
M02*
