M48
INCH
T1C0.0098
T2C0.0118
T3C0.0157
T4C0.0236
T5C0.0315
T6C0.0354
T7C0.0591
%
G90
G05
T1
X6.5551Y-3.715
X7.4291Y-3.1535
X7.4528Y-3.3661
X7.4606Y-3.063
X7.4724Y-3.126
X7.4921Y-3.2283
X7.4961Y-3.1142
X7.5128Y-3.2992
X7.5276Y-3.2283
X7.5709Y-3.5866
X7.5787Y-3.0748
X7.5787Y-3.0984
X7.5827Y-2.9803
X7.5984Y-3.1181
X7.6181Y-3.3622
X7.626Y-3.311
X7.6378Y-3.341
X7.6417Y-3.6299
X7.6457Y-3.5079
X7.6614Y-3.3976
X7.6811Y-3.2677
X7.7067Y-3.2165
X7.7147Y-3.1358
X7.7163Y-3.0097
X7.7283Y-3.0984
X7.7283Y-3.6339
X7.7362Y-3.0591
X7.7362Y-3.1378
X7.7441Y-3.3976
X7.7559Y-3.1969
X7.7559Y-3.6024
X7.7913Y-3.1575
X7.7953Y-3.0709
X7.7992Y-3.0984
X7.7992Y-3.185
X7.8071Y-3.1378
X7.8151Y-3.1177
X7.8185Y-3.6323
X7.8307Y-3.0236
X7.8321Y-3.8687
X7.8346Y-2.9724
X7.8346Y-3.8354
X7.8465Y-3.2701
X7.852Y-3.8848
X7.8531Y-3.9181
X7.8622Y-3.5236
X7.8701Y-3.4567
X7.8898Y-3.3976
X7.9131Y-3.6686
X7.9173Y-3.4843
X7.9685Y-3.7126
X7.9803Y-3.6449
X7.9909Y-3.2543
X8.0008Y-3.7097
X8.052Y-3.6571
X8.0701Y-3.7208
T2
X6.5669Y-4.2638
X6.9165Y-3.0299
X6.9213Y-3.8622
X6.9492Y-3.5
X7.0575Y-2.8016
X7.0787Y-3.9055
X7.1744Y-3.3035
X7.1772Y-3.8307
X7.1878Y-2.9882
X7.2323Y-2.7598
X7.2913Y-3.3661
X7.3031Y-3.5394
X7.3377Y-4.178
X7.3543Y-3.937
X7.3831Y-3.4657
X7.4685Y-4.8228
X7.5748Y-3.6524
X7.6142Y-2.7598
X7.6461Y-3.7209
X7.6654Y-4.7835
X7.7155Y-4.1393
X7.7953Y-3.3118
X7.8035Y-3.8165
X7.8398Y-4.1606
X7.8665Y-3.6686
X7.8741Y-3.3118
X7.9488Y-2.7638
X7.987Y-4.1598
X8.0118Y-2.9291
X8.0433Y-3.1339
X8.0551Y-3.3976
X8.0929Y-4.0205
X8.1339Y-3.5394
X8.1929Y-3.6299
T3
X6.348Y-4.0366
X6.35Y-3.8701
X6.35Y-4.5689
X6.3508Y-2.7681
X6.3528Y-3.1122
X6.3528Y-3.3252
X6.3528Y-4.3161
X6.3539Y-4.9224
X6.3551Y-3.5335
X6.3555Y-3.7315
X6.4228Y-3.3461
X6.5Y-4.7717
X6.5449Y-3.1142
X6.5705Y-4.0343
X6.5748Y-4.9449
X6.5787Y-3.5315
X6.6047Y-4.7654
X6.6126Y-4.5697
X6.6417Y-4.3882
X6.7063Y-4.3744
X6.7063Y-4.6224
X6.7149Y-3.8248
X6.7362Y-3.0945
X6.7417Y-2.7654
X6.7492Y-4.6669
X6.7594Y-3.2976
X6.763Y-4.3559
X6.7646Y-4.1866
X6.7811Y-4.5839
X6.7882Y-3.5661
X6.7912Y-4.752
X6.8071Y-4.3205
X6.8189Y-3.0945
X6.8201Y-4.2429
X6.8209Y-4.5295
X6.8236Y-3.3283
X6.8358Y-3.4339
X6.8506Y-3.575
X6.8516Y-4.3224
X6.8543Y-4.222
X6.8553Y-4.5795
X6.8556Y-4.6794
X6.8587Y-4.9488
X6.8638Y-3.0197
X6.8888Y-4.5587
X6.8923Y-4.3205
X6.8925Y-4.2634
X6.9209Y-3.963
X6.9224Y-4.0177
X6.9638Y-4.824
X6.9803Y-3.5465
X6.9835Y-4.2413
X6.9969Y-4.3591
X7.0272Y-4.5362
X7.0315Y-4.487
X7.0413Y-4.6878
X7.0484Y-2.9126
X7.0669Y-4.0374
X7.0748Y-4.8264
X7.0819Y-4.9476
X7.115Y-4.3205
X7.2429Y-4.6189
X7.2642Y-4.3091
X7.2672Y-4.5299
X7.2685Y-4.4906
X7.2708Y-4.5691
X7.2929Y-3.074
X7.3138Y-4.9488
X7.3516Y-3.2665
X7.3763Y-4.7604
X7.3976Y-3.7892
X7.3977Y-4.0556
X7.4042Y-4.823
X7.4059Y-3.8462
X7.4114Y-4.4827
X7.4379Y-3.7717
X7.4785Y-3.8002
X7.4803Y-4.2756
X7.4827Y-4.4732
X7.5374Y-4.6067
X7.5441Y-4.7862
X7.5567Y-4.4799
X7.5591Y-4.2756
X7.5669Y-4.3291
X7.5783Y-4.5469
X7.5799Y-4.6516
X7.603Y-3.7075
X7.6083Y-3.75
X7.6291Y-4.9461
X7.6382Y-4.2681
X7.678Y-4.2661
X7.692Y-4.3942
X7.7173Y-4.7
X7.7685Y-3.7843
X7.776Y-4.7232
X7.7823Y-4.2677
X7.798Y-4.3039
X7.8008Y-4.9472
X7.8107Y-4.0981
X7.8111Y-4.0226
X7.8219Y-4.0604
X7.8504Y-3.7047
X7.8539Y-4.0209
X7.8642Y-4.2224
X7.8726Y-3.9506
X7.908Y-3.9316
X7.9449Y-3.6054
X7.9461Y-4.4059
X7.9811Y-3.4658
X8.002Y-3.937
X8.0056Y-4.0515
X8.0213Y-4.9453
X8.0261Y-4.0179
X8.0327Y-4.798
X8.0366Y-4.6004
X8.0413Y-4.376
X8.1056Y-3.7782
X8.12Y-3.6
X8.1339Y-4.1299
X8.1772Y-3.8878
X8.2173Y-3.902
X8.2638Y-3.8217
X8.2945Y-3.6472
X8.5919Y-3.9026
T4
X6.5965Y-3.7717
X6.5965Y-3.8346
X6.6437Y-3.7402
X6.6437Y-3.8031
X6.6437Y-3.8661
T6
X6.4144Y-4.4921
X6.5144Y-4.4921
T7
X7.6181Y-3.937
T4
G00X6.6595Y-2.8171
M15
G01X6.6595Y-2.8604
M16
G05
G00X6.6595Y-2.9171
M15
G01X6.6595Y-2.9604
M16
G05
G00X6.6595Y-3.0171
M15
G01X6.6595Y-3.0604
M16
G05
T5
G00X6.4429Y-3.6535
M15
G01X6.3957Y-3.6535
M16
G05
G00X6.4429Y-3.9528
M15
G01X6.3957Y-3.9528
M16
G05
G00X6.6319Y-3.6535
M15
G01X6.5846Y-3.6535
M16
G05
G00X6.6319Y-3.9528
M15
G01X6.5846Y-3.9528
M16
G05
T0
M30
