%TF.GenerationSoftware,KiCad,Pcbnew,7.0.5*%
%TF.CreationDate,2023-08-14T22:02:20+09:00*%
%TF.ProjectId,sdcdmuxemmc,73646364-6d75-4786-956d-6d632e6b6963,rev?*%
%TF.SameCoordinates,Original*%
%TF.FileFunction,Paste,Top*%
%TF.FilePolarity,Positive*%
%FSLAX46Y46*%
G04 Gerber Fmt 4.6, Leading zero omitted, Abs format (unit mm)*
G04 Created by KiCad (PCBNEW 7.0.5) date 2023-08-14 22:02:20*
%MOMM*%
%LPD*%
G01*
G04 APERTURE LIST*
G04 Aperture macros list*
%AMRoundRect*
0 Rectangle with rounded corners*
0 $1 Rounding radius*
0 $2 $3 $4 $5 $6 $7 $8 $9 X,Y pos of 4 corners*
0 Add a 4 corners polygon primitive as box body*
4,1,4,$2,$3,$4,$5,$6,$7,$8,$9,$2,$3,0*
0 Add four circle primitives for the rounded corners*
1,1,$1+$1,$2,$3*
1,1,$1+$1,$4,$5*
1,1,$1+$1,$6,$7*
1,1,$1+$1,$8,$9*
0 Add four rect primitives between the rounded corners*
20,1,$1+$1,$2,$3,$4,$5,0*
20,1,$1+$1,$4,$5,$6,$7,0*
20,1,$1+$1,$6,$7,$8,$9,0*
20,1,$1+$1,$8,$9,$2,$3,0*%
G04 Aperture macros list end*
%ADD10RoundRect,0.150000X0.150000X-0.512500X0.150000X0.512500X-0.150000X0.512500X-0.150000X-0.512500X0*%
%ADD11RoundRect,0.237500X0.237500X-0.300000X0.237500X0.300000X-0.237500X0.300000X-0.237500X-0.300000X0*%
%ADD12RoundRect,0.250000X-0.350000X-0.450000X0.350000X-0.450000X0.350000X0.450000X-0.350000X0.450000X0*%
%ADD13RoundRect,0.237500X-0.300000X-0.237500X0.300000X-0.237500X0.300000X0.237500X-0.300000X0.237500X0*%
%ADD14RoundRect,0.200000X-1.600000X0.200000X-1.600000X-0.200000X1.600000X-0.200000X1.600000X0.200000X0*%
%ADD15RoundRect,0.200000X-1.750000X0.200000X-1.750000X-0.200000X1.750000X-0.200000X1.750000X0.200000X0*%
%ADD16RoundRect,0.237500X-0.237500X0.300000X-0.237500X-0.300000X0.237500X-0.300000X0.237500X0.300000X0*%
%ADD17RoundRect,0.250000X0.337500X0.475000X-0.337500X0.475000X-0.337500X-0.475000X0.337500X-0.475000X0*%
%ADD18RoundRect,0.100000X-0.100000X0.637500X-0.100000X-0.637500X0.100000X-0.637500X0.100000X0.637500X0*%
%ADD19RoundRect,0.250000X0.270000X-0.270000X0.270000X0.270000X-0.270000X0.270000X-0.270000X-0.270000X0*%
%ADD20RoundRect,0.062500X0.062500X-0.375000X0.062500X0.375000X-0.062500X0.375000X-0.062500X-0.375000X0*%
%ADD21RoundRect,0.062500X0.375000X-0.062500X0.375000X0.062500X-0.375000X0.062500X-0.375000X-0.062500X0*%
%ADD22RoundRect,0.250000X0.450000X-0.350000X0.450000X0.350000X-0.450000X0.350000X-0.450000X-0.350000X0*%
%ADD23RoundRect,0.250000X0.350000X0.450000X-0.350000X0.450000X-0.350000X-0.450000X0.350000X-0.450000X0*%
%ADD24R,0.900000X0.800000*%
%ADD25RoundRect,0.150000X-0.512500X-0.150000X0.512500X-0.150000X0.512500X0.150000X-0.512500X0.150000X0*%
%ADD26RoundRect,0.250000X-0.450000X0.350000X-0.450000X-0.350000X0.450000X-0.350000X0.450000X0.350000X0*%
%ADD27RoundRect,0.237500X0.237500X-0.287500X0.237500X0.287500X-0.237500X0.287500X-0.237500X-0.287500X0*%
%ADD28RoundRect,0.237500X-0.287500X-0.237500X0.287500X-0.237500X0.287500X0.237500X-0.287500X0.237500X0*%
%ADD29R,1.200000X1.400000*%
%ADD30RoundRect,0.225000X0.225000X0.250000X-0.225000X0.250000X-0.225000X-0.250000X0.225000X-0.250000X0*%
%ADD31RoundRect,0.250000X-0.325000X-0.450000X0.325000X-0.450000X0.325000X0.450000X-0.325000X0.450000X0*%
%ADD32RoundRect,0.250000X-0.337500X-0.475000X0.337500X-0.475000X0.337500X0.475000X-0.337500X0.475000X0*%
%ADD33RoundRect,0.250000X0.450000X-0.325000X0.450000X0.325000X-0.450000X0.325000X-0.450000X-0.325000X0*%
%ADD34RoundRect,0.237500X0.287500X0.237500X-0.287500X0.237500X-0.287500X-0.237500X0.287500X-0.237500X0*%
%ADD35RoundRect,0.100000X0.637500X0.100000X-0.637500X0.100000X-0.637500X-0.100000X0.637500X-0.100000X0*%
%ADD36RoundRect,0.250000X0.250000X0.475000X-0.250000X0.475000X-0.250000X-0.475000X0.250000X-0.475000X0*%
%ADD37RoundRect,0.250000X0.475000X-0.337500X0.475000X0.337500X-0.475000X0.337500X-0.475000X-0.337500X0*%
%ADD38RoundRect,0.237500X0.300000X0.237500X-0.300000X0.237500X-0.300000X-0.237500X0.300000X-0.237500X0*%
%ADD39RoundRect,0.237500X-0.237500X0.250000X-0.237500X-0.250000X0.237500X-0.250000X0.237500X0.250000X0*%
%ADD40RoundRect,0.237500X-0.237500X0.287500X-0.237500X-0.287500X0.237500X-0.287500X0.237500X0.287500X0*%
%ADD41RoundRect,0.237500X0.250000X0.237500X-0.250000X0.237500X-0.250000X-0.237500X0.250000X-0.237500X0*%
%ADD42RoundRect,0.150000X0.587500X0.150000X-0.587500X0.150000X-0.587500X-0.150000X0.587500X-0.150000X0*%
%ADD43RoundRect,0.225000X-0.225000X-0.250000X0.225000X-0.250000X0.225000X0.250000X-0.225000X0.250000X0*%
%ADD44RoundRect,0.150000X-0.150000X0.175000X-0.150000X-0.175000X0.150000X-0.175000X0.150000X0.175000X0*%
%ADD45RoundRect,0.087500X-0.262500X0.087500X-0.262500X-0.087500X0.262500X-0.087500X0.262500X0.087500X0*%
%ADD46R,1.560000X0.650000*%
G04 APERTURE END LIST*
D10*
%TO.C,U301*%
X175350000Y-86837500D03*
X176300000Y-86837500D03*
X177250000Y-86837500D03*
X177250000Y-84562500D03*
X175350000Y-84562500D03*
%TD*%
D11*
%TO.C,C408*%
X190937500Y-93555000D03*
X190937500Y-91830000D03*
%TD*%
D12*
%TO.C,R309*%
X175410000Y-78770000D03*
X177410000Y-78770000D03*
%TD*%
D13*
%TO.C,C509*%
X196217500Y-123540000D03*
X197942500Y-123540000D03*
%TD*%
D14*
%TO.C,J102*%
X225320000Y-93625000D03*
X225320000Y-94725000D03*
X225320000Y-95825000D03*
D15*
X225470000Y-96925000D03*
D14*
X225320000Y-98025000D03*
D15*
X225470000Y-99125000D03*
D14*
X225320000Y-100225000D03*
X225320000Y-101325000D03*
%TD*%
D16*
%TO.C,C101*%
X168000000Y-104637500D03*
X168000000Y-106362500D03*
%TD*%
D13*
%TO.C,C511*%
X189237500Y-110180000D03*
X190962500Y-110180000D03*
%TD*%
D17*
%TO.C,C411*%
X186377500Y-104320000D03*
X184302500Y-104320000D03*
%TD*%
D12*
%TO.C,R509*%
X196180000Y-121500000D03*
X198180000Y-121500000D03*
%TD*%
D18*
%TO.C,U602*%
X204967000Y-98483500D03*
X204317000Y-98483500D03*
X203667000Y-98483500D03*
X203017000Y-98483500D03*
X202367000Y-98483500D03*
X201717000Y-98483500D03*
X201067000Y-98483500D03*
X200417000Y-98483500D03*
X200417000Y-104208500D03*
X201067000Y-104208500D03*
X201717000Y-104208500D03*
X202367000Y-104208500D03*
X203017000Y-104208500D03*
X203667000Y-104208500D03*
X204317000Y-104208500D03*
X204967000Y-104208500D03*
%TD*%
D11*
%TO.C,C606*%
X201350000Y-78492500D03*
X201350000Y-76767500D03*
%TD*%
D19*
%TO.C,U402*%
X191565000Y-101935000D03*
X192855000Y-101935000D03*
X194145000Y-101935000D03*
X195435000Y-101935000D03*
X191565000Y-100645000D03*
X192855000Y-100645000D03*
X194145000Y-100645000D03*
X195435000Y-100645000D03*
X191565000Y-99355000D03*
X192855000Y-99355000D03*
X194145000Y-99355000D03*
X195435000Y-99355000D03*
X191565000Y-98065000D03*
X192855000Y-98065000D03*
X194145000Y-98065000D03*
X195435000Y-98065000D03*
D20*
X190750000Y-103437500D03*
X191250000Y-103437500D03*
X191750000Y-103437500D03*
X192250000Y-103437500D03*
X192750000Y-103437500D03*
X193250000Y-103437500D03*
X193750000Y-103437500D03*
X194250000Y-103437500D03*
X194750000Y-103437500D03*
X195250000Y-103437500D03*
X195750000Y-103437500D03*
X196250000Y-103437500D03*
D21*
X196937500Y-102750000D03*
X196937500Y-102250000D03*
X196937500Y-101750000D03*
X196937500Y-101250000D03*
X196937500Y-100750000D03*
X196937500Y-100250000D03*
X196937500Y-99750000D03*
X196937500Y-99250000D03*
X196937500Y-98750000D03*
X196937500Y-98250000D03*
X196937500Y-97750000D03*
X196937500Y-97250000D03*
D20*
X196250000Y-96562500D03*
X195750000Y-96562500D03*
X195250000Y-96562500D03*
X194750000Y-96562500D03*
X194250000Y-96562500D03*
X193750000Y-96562500D03*
X193250000Y-96562500D03*
X192750000Y-96562500D03*
X192250000Y-96562500D03*
X191750000Y-96562500D03*
X191250000Y-96562500D03*
X190750000Y-96562500D03*
D21*
X190062500Y-97250000D03*
X190062500Y-97750000D03*
X190062500Y-98250000D03*
X190062500Y-98750000D03*
X190062500Y-99250000D03*
X190062500Y-99750000D03*
X190062500Y-100250000D03*
X190062500Y-100750000D03*
X190062500Y-101250000D03*
X190062500Y-101750000D03*
X190062500Y-102250000D03*
X190062500Y-102750000D03*
%TD*%
D22*
%TO.C,R102*%
X169000000Y-90700000D03*
X169000000Y-88700000D03*
%TD*%
D23*
%TO.C,R405*%
X185150000Y-80160000D03*
X183150000Y-80160000D03*
%TD*%
D24*
%TO.C,Y401*%
X177860000Y-103190000D03*
X176460000Y-103190000D03*
X176460000Y-104290000D03*
X177860000Y-104290000D03*
%TD*%
D25*
%TO.C,U501*%
X180212500Y-113000000D03*
X180212500Y-113950000D03*
X180212500Y-114900000D03*
X182487500Y-114900000D03*
X182487500Y-113950000D03*
X182487500Y-113000000D03*
%TD*%
D26*
%TO.C,R306*%
X179500000Y-84700000D03*
X179500000Y-86700000D03*
%TD*%
D23*
%TO.C,R307*%
X199000000Y-72600000D03*
X197000000Y-72600000D03*
%TD*%
D26*
%TO.C,R602*%
X201350000Y-80490000D03*
X201350000Y-82490000D03*
%TD*%
D27*
%TO.C,FB301*%
X175500000Y-95275000D03*
X175500000Y-93525000D03*
%TD*%
D28*
%TO.C,D201*%
X163125000Y-119500000D03*
X164875000Y-119500000D03*
%TD*%
D29*
%TO.C,Y501*%
X188460000Y-115490000D03*
X188460000Y-117690000D03*
X190160000Y-117690000D03*
X190160000Y-115490000D03*
%TD*%
D12*
%TO.C,R305*%
X175340000Y-82310000D03*
X177340000Y-82310000D03*
%TD*%
D27*
%TO.C,D501*%
X203130000Y-86535000D03*
X203130000Y-84785000D03*
%TD*%
D28*
%TO.C,D301*%
X192325000Y-72600000D03*
X194075000Y-72600000D03*
%TD*%
D30*
%TO.C,C403*%
X177985000Y-106160000D03*
X176435000Y-106160000D03*
%TD*%
D31*
%TO.C,FB501*%
X184915000Y-110990000D03*
X186965000Y-110990000D03*
%TD*%
D23*
%TO.C,R601*%
X193620000Y-123100000D03*
X191620000Y-123100000D03*
%TD*%
D32*
%TO.C,C201*%
X167702500Y-119390000D03*
X169777500Y-119390000D03*
%TD*%
D33*
%TO.C,FB502*%
X197410000Y-114345000D03*
X197410000Y-112295000D03*
%TD*%
D34*
%TO.C,D302*%
X176505000Y-70310000D03*
X174755000Y-70310000D03*
%TD*%
D23*
%TO.C,R404*%
X201800000Y-113910000D03*
X199800000Y-113910000D03*
%TD*%
D32*
%TO.C,C304*%
X175162500Y-89400000D03*
X177237500Y-89400000D03*
%TD*%
D16*
%TO.C,C504*%
X186510000Y-115717500D03*
X186510000Y-117442500D03*
%TD*%
D12*
%TO.C,R507*%
X180500000Y-117590000D03*
X182500000Y-117590000D03*
%TD*%
D35*
%TO.C,U603*%
X197962500Y-90175000D03*
X197962500Y-89525000D03*
X197962500Y-88875000D03*
X197962500Y-88225000D03*
X197962500Y-87575000D03*
X197962500Y-86925000D03*
X197962500Y-86275000D03*
X197962500Y-85625000D03*
X192237500Y-85625000D03*
X192237500Y-86275000D03*
X192237500Y-86925000D03*
X192237500Y-87575000D03*
X192237500Y-88225000D03*
X192237500Y-88875000D03*
X192237500Y-89525000D03*
X192237500Y-90175000D03*
%TD*%
D36*
%TO.C,C605*%
X182590000Y-74230000D03*
X180690000Y-74230000D03*
%TD*%
D26*
%TO.C,R508*%
X201460000Y-72620000D03*
X201460000Y-74620000D03*
%TD*%
D18*
%TO.C,U601*%
X204967000Y-90101500D03*
X204317000Y-90101500D03*
X203667000Y-90101500D03*
X203017000Y-90101500D03*
X202367000Y-90101500D03*
X201717000Y-90101500D03*
X201067000Y-90101500D03*
X200417000Y-90101500D03*
X200417000Y-95826500D03*
X201067000Y-95826500D03*
X201717000Y-95826500D03*
X202367000Y-95826500D03*
X203017000Y-95826500D03*
X203667000Y-95826500D03*
X204317000Y-95826500D03*
X204967000Y-95826500D03*
%TD*%
D37*
%TO.C,C202*%
X170100000Y-73837500D03*
X170100000Y-71762500D03*
%TD*%
%TO.C,C308*%
X173200000Y-82337500D03*
X173200000Y-80262500D03*
%TD*%
D38*
%TO.C,C406*%
X181912500Y-104040000D03*
X180187500Y-104040000D03*
%TD*%
D23*
%TO.C,R506*%
X178170000Y-117560000D03*
X176170000Y-117560000D03*
%TD*%
D32*
%TO.C,C515*%
X193302500Y-113290000D03*
X195377500Y-113290000D03*
%TD*%
D26*
%TO.C,R101*%
X164600000Y-104500000D03*
X164600000Y-106500000D03*
%TD*%
D11*
%TO.C,C309*%
X180410000Y-94112500D03*
X180410000Y-92387500D03*
%TD*%
D39*
%TO.C,R504*%
X190000000Y-105337500D03*
X190000000Y-107162500D03*
%TD*%
D22*
%TO.C,R502*%
X176790000Y-115010000D03*
X176790000Y-113010000D03*
%TD*%
D40*
%TO.C,D401*%
X187400000Y-79935000D03*
X187400000Y-81685000D03*
%TD*%
D11*
%TO.C,C307*%
X170000000Y-82162500D03*
X170000000Y-80437500D03*
%TD*%
D37*
%TO.C,C410*%
X187707500Y-93770000D03*
X187707500Y-91695000D03*
%TD*%
D11*
%TO.C,C505*%
X194290000Y-117042500D03*
X194290000Y-115317500D03*
%TD*%
D37*
%TO.C,C412*%
X184237500Y-93790000D03*
X184237500Y-91715000D03*
%TD*%
D41*
%TO.C,R203*%
X164902500Y-110120000D03*
X163077500Y-110120000D03*
%TD*%
D42*
%TO.C,Q201*%
X171327500Y-115090000D03*
X171327500Y-113190000D03*
X169452500Y-114140000D03*
%TD*%
D22*
%TO.C,R401*%
X173440000Y-102310000D03*
X173440000Y-100310000D03*
%TD*%
D11*
%TO.C,C601*%
X189000000Y-89712500D03*
X189000000Y-87987500D03*
%TD*%
D43*
%TO.C,C404*%
X177065000Y-101450000D03*
X178615000Y-101450000D03*
%TD*%
D44*
%TO.C,SW301*%
X164850000Y-86525000D03*
X164850000Y-89675000D03*
X163150000Y-86525000D03*
X163150000Y-89675000D03*
D45*
X164000000Y-86375000D03*
X164000000Y-89825000D03*
%TD*%
D39*
%TO.C,R505*%
X192000000Y-105337500D03*
X192000000Y-107162500D03*
%TD*%
D32*
%TO.C,C514*%
X189052500Y-112100000D03*
X191127500Y-112100000D03*
%TD*%
D13*
%TO.C,C512*%
X193407500Y-110170000D03*
X195132500Y-110170000D03*
%TD*%
%TO.C,C302*%
X175337500Y-91500000D03*
X177062500Y-91500000D03*
%TD*%
D17*
%TO.C,C402*%
X182217500Y-107110000D03*
X180142500Y-107110000D03*
%TD*%
D23*
%TO.C,R308*%
X186100000Y-95900000D03*
X184100000Y-95900000D03*
%TD*%
D17*
%TO.C,C409*%
X186347500Y-107760000D03*
X184272500Y-107760000D03*
%TD*%
D38*
%TO.C,C502*%
X182442500Y-110970000D03*
X180717500Y-110970000D03*
%TD*%
D12*
%TO.C,R204*%
X170100000Y-77200000D03*
X172100000Y-77200000D03*
%TD*%
D36*
%TO.C,C604*%
X187270000Y-76690000D03*
X185370000Y-76690000D03*
%TD*%
D46*
%TO.C,U401*%
X199130000Y-108380000D03*
X199130000Y-109330000D03*
X199130000Y-110280000D03*
X201830000Y-110280000D03*
X201830000Y-108380000D03*
%TD*%
M02*
